<?xml version="1.0" encoding="utf-8"?>
<!-- Generator: Adobe Illustrator 24.3.0, SVG Export Plug-In . SVG Version: 6.00 Build 0)  -->
<svg version="1.1" id="Capa_1" xmlns="http://www.w3.org/2000/svg" xmlns:xlink="http://www.w3.org/1999/xlink" x="0px" y="0px"
	 viewBox="0 0 453 311" style="enable-background:new 0 0 453 311;" xml:space="preserve">
<style type="text/css">
	.st0{fill:#D4FF00;}
	.st1{fill:#8DEF37;}
	.st2{fill:url(#SVGID_1_);}
	.st3{fill:#00CFA5;}
	.st4{fill:url(#SVGID_2_);}
	.st5{fill:#342D59;}
	.st6{fill:url(#SVGID_3_);}
	.st7{fill:url(#SVGID_4_);}
	.st8{fill:url(#SVGID_5_);}
	.st9{fill:url(#SVGID_6_);}
	.st10{fill:#FFFFFF;}
</style>
<g>
	<g>
		
			<rect x="182.38" y="92.97" transform="matrix(0.7071 0.7071 -0.7071 0.7071 137.3788 -109.2801)" class="st0" width="36.44" height="36.44"/>
		
			<rect x="208.15" y="118.74" transform="matrix(0.7071 0.7071 -0.7071 0.7071 163.1471 -119.9537)" class="st1" width="36.44" height="36.44"/>
		
			<linearGradient id="SVGID_1_" gradientUnits="userSpaceOnUse" x1="120.9219" y1="-207.4964" x2="120.9219" y2="-242.8738" gradientTransform="matrix(0.7071 0.7071 -0.7071 0.7071 6.8252 185.4951)">
			<stop  offset="0" style="stop-color:#3AAE57;stop-opacity:0.92"/>
			<stop  offset="1" style="stop-color:#4DDE72"/>
		</linearGradient>
		<polygon class="st2" points="277.91,111.19 252.14,85.42 226.37,111.19 252.14,136.96 		"/>
		
			<rect x="259.69" y="67.2" transform="matrix(0.7071 0.7071 -0.7071 0.7071 141.7999 -171.4904)" class="st3" width="36.44" height="36.44"/>
	</g>
	
		<rect x="208.67" y="118.48" transform="matrix(-0.7071 0.7071 -0.7071 -0.7071 483.9845 72.9274)" class="st0" width="36.44" height="36.44"/>
	
		<linearGradient id="SVGID_2_" gradientUnits="userSpaceOnUse" x1="-628.7877" y1="307.1002" x2="-628.7877" y2="271.7228" gradientTransform="matrix(-0.7071 0.7071 0.7071 0.7071 -447.8247 351.7451)">
		<stop  offset="0" style="stop-color:#3AAE57;stop-opacity:0.92"/>
		<stop  offset="1" style="stop-color:#4DDE72"/>
	</linearGradient>
	<polygon class="st4" points="175.09,111.19 200.86,85.42 226.63,111.19 200.86,136.96 	"/>
	
		<rect x="156.87" y="67.2" transform="matrix(-0.7071 0.7071 -0.7071 -0.7071 359.3049 22.0159)" class="st3" width="36.44" height="36.44"/>
</g>
<g>
	<path class="st5" d="M56.11,234.01L42.5,191.29h13.43l7.02,27.16l7.02-27.16h13.43l-13.61,42.72H56.11z"/>
	<path class="st5" d="M90.29,201.18c-1.71,0-3.18-0.62-4.42-1.86c-1.24-1.24-1.86-2.69-1.86-4.36c0-1.67,0.62-3.12,1.86-4.36
		c1.24-1.24,2.72-1.86,4.42-1.86c1.67,0,3.12,0.62,4.36,1.86c1.24,1.24,1.86,2.7,1.86,4.36c0,1.67-0.62,3.12-1.86,4.36
		C93.41,200.56,91.95,201.18,90.29,201.18z M84.61,234.01V203.5H95.9v30.51H84.61z"/>
	<path class="st5" d="M112.07,209.42c0.57-2.08,1.69-3.68,3.36-4.82c1.67-1.14,3.6-1.71,5.8-1.71v12.21
		c-2.44-0.33-4.58,0.15-6.41,1.43c-1.83,1.28-2.75,3.33-2.75,6.13v11.35h-11.29V203.5h11.29V209.42z"/>
	<path class="st5" d="M145.33,214.24h-6.41v6.59c0,1.02,0.24,1.77,0.73,2.26s1.21,0.76,2.17,0.82c0.96,0.06,2.13,0.05,3.51-0.03
		v10.13c-6.39,0.89-10.94,0.35-13.64-1.65c-2.71-1.99-4.06-5.63-4.06-10.92v-7.2h-4.27V203.5h4.27v-5.19l11.29-3.36v8.54h6.41
		V214.24z"/>
	<path class="st5" d="M171.03,234.99c-6.43,0-11.76-2.14-15.99-6.41c-4.23-4.27-6.35-9.58-6.35-15.93c0-6.35,2.12-11.66,6.35-15.93
		c4.23-4.27,9.56-6.41,15.99-6.41c3.95,0,7.59,0.94,10.92,2.81c3.33,1.87,5.94,4.39,7.81,7.57l-10.62,6.1
		c-0.69-1.38-1.77-2.48-3.23-3.3c-1.46-0.81-3.09-1.22-4.88-1.22c-3.01,0-5.45,0.98-7.32,2.93c-1.87,1.95-2.81,4.44-2.81,7.45
		c0,3.01,0.94,5.49,2.81,7.45c1.87,1.95,4.31,2.93,7.32,2.93c1.83,0,3.47-0.41,4.91-1.22c1.44-0.81,2.51-1.93,3.2-3.36l10.62,6.1
		c-1.87,3.21-4.48,5.76-7.81,7.63C178.61,234.05,174.97,234.99,171.03,234.99z"/>
	<path class="st5" d="M213.93,203.5h11.29v30.51h-11.29v-2.75c-1.95,2.4-4.68,3.6-8.18,3.6c-4.11,0-7.47-1.53-10.07-4.58
		c-2.6-3.05-3.91-6.9-3.91-11.53s1.3-8.48,3.91-11.53c2.6-3.05,5.96-4.58,10.07-4.58c3.5,0,6.22,1.2,8.18,3.6V203.5z M204.56,222.84
		c1,1.1,2.31,1.65,3.94,1.65s2.94-0.55,3.94-1.65c1-1.1,1.5-2.46,1.5-4.09c0-1.63-0.5-2.99-1.5-4.09s-2.31-1.65-3.94-1.65
		s-2.94,0.55-3.94,1.65c-1,1.1-1.5,2.46-1.5,4.09C203.07,220.38,203.56,221.75,204.56,222.84z"/>
	<path class="st5" d="M230.1,234.01v-44.55h11.29v44.55H230.1z"/>
	<path class="st5" d="M256.22,222.6c0.98,2.04,3.05,3.05,6.23,3.05c1.87,0,3.6-0.65,5.19-1.95l7.38,6.23
		c-3.05,3.3-7.36,4.94-12.94,4.94c-5.21,0-9.39-1.52-12.54-4.55c-3.15-3.03-4.73-6.84-4.73-11.44c0-4.64,1.54-8.5,4.61-11.6
		c3.07-3.09,6.95-4.64,11.63-4.64c4.64,0,8.45,1.52,11.44,4.55c2.99,3.03,4.49,6.85,4.49,11.44c0,1.34-0.16,2.67-0.49,3.97H256.22z
		 M256.04,215.34h10.25c-0.69-2.44-2.34-3.66-4.94-3.66C258.7,211.68,256.93,212.9,256.04,215.34z"/>
	<path class="st5" d="M299.8,202.64c3.34,0,6.01,1.15,8.03,3.45c2.01,2.3,3.02,5.73,3.02,10.28v17.64h-11.29V217.6
		c0-2.73-1.26-4.09-3.78-4.09c-1.34,0-2.37,0.43-3.08,1.28c-0.71,0.85-1.07,2.03-1.07,3.54v15.68h-11.29V203.5h11.29v2.99
		C293.49,203.93,296.22,202.64,299.8,202.64z"/>
	<path class="st5" d="M336.11,191.29h11.29v42.72h-11.29v-2.75c-1.95,2.4-4.68,3.6-8.18,3.6c-4.11,0-7.47-1.53-10.07-4.58
		c-2.6-3.05-3.91-6.9-3.91-11.53s1.3-8.48,3.91-11.53c2.6-3.05,5.96-4.58,10.07-4.58c3.5,0,6.22,1.2,8.18,3.6V191.29z
		 M326.74,222.84c1,1.1,2.31,1.65,3.94,1.65c1.63,0,2.94-0.55,3.94-1.65c1-1.1,1.5-2.46,1.5-4.09c0-1.63-0.5-2.99-1.5-4.09
		c-1-1.1-2.31-1.65-3.94-1.65c-1.63,0-2.94,0.55-3.94,1.65s-1.5,2.46-1.5,4.09C325.25,220.38,325.74,221.75,326.74,222.84z"/>
	<path class="st5" d="M372.97,203.5h11.29v30.51h-11.29v-2.75c-1.95,2.4-4.68,3.6-8.18,3.6c-4.11,0-7.47-1.53-10.07-4.58
		c-2.6-3.05-3.91-6.9-3.91-11.53s1.3-8.48,3.91-11.53c2.6-3.05,5.96-4.58,10.07-4.58c3.5,0,6.22,1.2,8.18,3.6V203.5z M363.6,222.84
		c1,1.1,2.31,1.65,3.94,1.65c1.63,0,2.94-0.55,3.94-1.65c1-1.1,1.5-2.46,1.5-4.09c0-1.63-0.5-2.99-1.5-4.09
		c-1-1.1-2.31-1.65-3.94-1.65c-1.63,0-2.94,0.55-3.94,1.65s-1.5,2.46-1.5,4.09C362.11,220.38,362.6,221.75,363.6,222.84z"/>
	<path class="st5" d="M400.43,209.42c0.57-2.08,1.69-3.68,3.36-4.82c1.67-1.14,3.6-1.71,5.8-1.71v12.21
		c-2.44-0.33-4.58,0.15-6.41,1.43s-2.75,3.33-2.75,6.13v11.35h-11.29V203.5h11.29V209.42z"/>
</g>
</svg>
